<?xml version="1.0" standalone="no"?><!DOCTYPE svg PUBLIC "-//W3C//DTD SVG 1.1//EN" "http://www.w3.org/Graphics/SVG/1.1/DTD/svg11.dtd"><svg t="1490342813823" class="icon" style="" viewBox="0 0 1792 1024" version="1.1" xmlns="http://www.w3.org/2000/svg" p-id="10032" xmlns:xlink="http://www.w3.org/1999/xlink" width="350" height="200"><defs><style type="text/css"></style></defs><path d="M541.124261 404.73241l-75.777264 0 0 65.906623 0 4.948867c-1.318494 79.804992-66.656178 144.320875-146.777247 144.320875S173.120028 555.401923 171.792504 475.5879l0-4.948867 0-65.906623 16.905618 0 224.785113 0 34.967175 0 16.896587 0 0-85.810459L171.792504 318.921951 151.084928 318.921951l-47.023265 0c-11.423935 0-20.689514 9.256548-20.689514 20.680483l0 65.129976 0 73.40217c0 15.343293 1.62554 30.695617 4.804374 45.650586 3.097557 14.602769 7.721316 28.970738 13.753876 42.706553 5.906129 13.45586 13.212029 26.44212 21.719023 38.570456 8.398624 11.983843 18.052527 23.245224 28.654661 33.504189 6.158991 5.924191 12.679213 11.550366 19.47939 16.806279 4.939836 3.820019 10.024164 7.4233 15.243954 10.845965 12.579875 8.190916 26.017674 15.243954 39.961196 20.933345 14.232507 5.833883 29.124261 10.304119 44.259847 13.293306 15.496816 3.070465 31.418079 4.623759 47.303219 4.623759 15.903201 0 31.815433-1.553294 47.31225-4.623759 15.144616-2.989188 30.027339-7.450392 44.259847-13.293306 13.943522-5.689391 27.381321-12.742429 39.961196-20.933345 5.228821-3.422665 10.313149-7.025946 15.243954-10.845965 6.809207-5.255913 13.329429-10.882088 19.47939-16.806279 10.620196-10.258965 20.256037-21.520346 28.663692-33.504189 8.497963-12.137367 15.812894-25.114596 21.709992-38.570456 6.041591-13.735814 10.66535-28.094753 13.771938-42.706553 3.178834-14.945939 4.786313-30.298263 4.786313-45.650586l0-73.40217L541.124261 404.73241z" p-id="10033" fill="#efb336"></path><path d="M685.815398 390.93338c11.703889 7.974178 26.541459 19.425205 44.53077 34.353082-6.26736 6.96273-11.180104 12.381198-14.756292 16.291525-18.160896-16.454079-32.321157-28.501138-42.498845-36.141176L685.815398 390.93338zM703.380263 464.480042c7.125284 3.395573 13.997707 6.195114 20.608237 8.398624-6.782115 28.157968-14.331846 60.054679-22.649193 95.690131l-22.3873-6.61053C687.431908 535.480025 695.568639 502.987283 703.380263 464.480042zM695.740224 325.270588c10.854996 8.488932 24.337949 20.030267 40.457889 34.614975l-14.756292 15.77677c-12.047059-12.895952-24.952042-25.024288-38.678825-36.385007L695.740224 325.270588zM742.059088 345.887856l78.63099 0c-2.880818-6.782115-6.014499-14.088015-9.410071-21.890608l18.585343-6.61053c4.912744 10.945304 8.904348 20.445683 11.956751 28.501138l82.198148 0 0 17.817726L742.059088 363.705583 742.059088 345.887856zM747.902002 398.573419l45.045524 0c-4.244466-7.215592-9.662933-15.614216-16.291525-25.195873l15.018185-9.175271c7.468454 9.50941 14.088015 18.66662 19.849652 27.48969l-10.945304 6.881453 46.445295 0c7.387177-11.378781 14.133169-22.567916 20.228944-33.603528l18.829174 9.419102c-5.933222 7.983208-12.047059 16.029632-18.314419 24.184425l45.560279 0 0 140.726625c0 18.314419-8.317347 27.48066-24.943011 27.48066-4.253497 0-14.936908-0.090308-32.077326-0.252862-0.505724-5.599083-1.86034-12.390228-4.06385-20.355375 13.058506 1.354617 23.579363 2.031925 31.553541 2.031925 7.459423 0 11.207196-4.154158 11.207196-12.471505L895.004357 415.876391 766.234483 415.876391l0 152.683376-18.32345 0L747.911033 398.573419zM790.924632 476.436793l31.038786 0 0-21.366822-44.016016 0 0-16.291525 44.016016 0 0-18.079619 17.312003 0 0 18.079619 44.034077 0 0 16.291525-44.034077 0 0 21.366822 30.533063 0 0 56.496552L807.712849 532.933345l0 10.177688-16.788218 0L790.924632 476.436793zM853.011236 517.156575l0-24.943011L807.712849 492.213564l0 24.943011L853.011236 517.156575z" p-id="10034" fill="#efb336"></path><path d="M946.41658 390.93338c11.703889 7.974178 26.55952 19.425205 44.53077 34.353082-6.26736 6.96273-11.180104 12.381198-14.747262 16.291525-18.169927-16.454079-32.321157-28.501138-42.507875-36.141176L946.41658 390.93338zM963.981445 464.480042c7.125284 3.395573 13.997707 6.195114 20.599206 8.398624-6.782115 28.157968-14.331846 60.054679-22.649193 95.690131l-22.3873-6.61053C948.033089 535.480025 956.178852 502.987283 963.981445 464.480042zM956.341406 325.270588c10.854996 8.488932 24.328918 20.030267 40.448858 34.614975l-14.765323 15.77677c-12.047059-12.895952-24.93398-25.024288-38.669795-36.385007L956.341406 325.270588zM1002.651239 345.887856l78.640021 0c-2.889849-6.782115-6.03256-14.088015-9.419102-21.890608l18.585343-6.61053c4.912744 10.945304 8.904348 20.445683 11.956751 28.501138l82.207179 0 0 17.817726-181.961161 0L1002.66027 345.887856zM1008.512214 398.573419l45.036494 0c-4.235435-7.215592-9.653902-15.614216-16.282494-25.195873l15.009154-9.175271c7.468454 9.50941 14.078984 18.66662 19.849652 27.48969l-10.954335 6.881453 46.454326 0c7.387177-11.378781 14.133169-22.567916 20.228944-33.603528l18.829174 9.419102c-5.924191 7.983208-12.038028 16.029632-18.314419 24.184425l45.560279 0 0 140.726625c0 18.314419-8.317347 27.48066-24.943011 27.48066-4.253497 0-14.936908-0.090308-32.068295-0.252862-0.514754-5.599083-1.869371-12.390228-4.06385-20.355375 13.049475 1.354617 23.570332 2.031925 31.54451 2.031925 7.459423 0 11.207196-4.154158 11.207196-12.471505L1155.605538 415.876391l-128.778905 0 0 152.683376-18.32345 0L1008.503184 398.573419zM1051.525814 476.436793l31.047817 0 0-21.366822L1038.539554 455.069971l0-16.291525 44.025046 0 0-18.079619 17.312003 0 0 18.079619 44.025046 0 0 16.291525-44.025046 0 0 21.366822 30.542094 0 0 56.496552-62.104665 0 0 10.177688-16.788218 0L1051.525814 476.436793zM1113.612417 517.156575l0-24.943011-45.307417 0 0 24.943011L1113.612417 517.156575z" p-id="10035" fill="#efb336"></path><path d="M1398.379963 447.935656l0-9.410071-66.91807 0 0 99.753982 74.558109 0 0-72.526184 21.375853 0 0 101.036352-21.375853 0 0-9.16624-191.362201 0L1214.657801 465.744351l21.628715 0 0 72.526184 73.031908 0L1309.318423 438.525584l-87.7882 0L1221.530223 347.152165l21.628715 0 0 72.02046 66.159485 0L1309.318423 323.753417l22.1525 0 0 95.419208 66.91807 0 0-72.02046 21.637746 0 0 100.77446L1398.379963 447.926625z" p-id="10036" fill="#efb336"></path><path d="M1455.391269 472.10202c26.288597-21.538407 50.21113-51.818608 71.749537-90.849634l17.835788 10.945304c-8.750825 15.099462-17.98028 29.2236-27.751583 42.363383l0 134.75728-21.113961 0L1496.11105 460.786454c-10.177688 11.532304-20.788853 22.188623-31.806403 31.932834C1461.577353 485.594003 1458.615257 478.739642 1455.391269 472.10202zM1456.664609 391.439104c26.974936-20.87013 48.684928-45.126801 65.157069-72.788077l18.314419 11.198166c-19.687098 30.207955-44.115354 57.264168-73.2938 81.186701C1463.789893 404.587918 1460.39432 398.049634 1456.664609 391.439104zM1547.523274 415.108775l161.072969 0 0 19.082035-49.353206 0 0 99.50112c0 21.041714-10.620196 31.562572-31.824464 31.562572-14.241538 0-28.76303-0.081277-43.501261-0.252862-1.029509-6.791146-2.302849-14.422154-3.82905-22.902055 13.230091 1.354617 26.541459 2.040956 39.961196 2.040956 11.71292 0 17.546803-5.770668 17.546803-17.302972L1637.596261 434.19081l-90.072987 0L1547.523274 415.108775zM1562.270535 338.256848l132.08417 0 0 19.082035-132.08417 0L1562.270535 338.256848z" p-id="10037" fill="#efb336"></path><path d="M686.275968 640.336397c4.28962 2.925972 9.726149 7.116254 16.318617 12.588906-2.302849 2.54668-4.099974 4.542482-5.409436 5.960314-6.646653-6.023529-11.848382-10.430549-15.569063-13.230091L686.275968 640.336397zM692.714913 667.28424c2.609895 1.246247 5.120452 2.266725 7.549731 3.079496-2.483464 10.32218-5.246882 21.998977-8.290255 35.048452l-8.218009-2.429279C686.871999 693.283852 689.852156 681.381286 692.714913 667.28424zM689.915372 616.296464c3.964512 3.097557 8.904348 7.332992 14.819508 12.661152l-5.409436 5.788729c-4.416051-4.723097-9.139148-9.175271-14.160261-13.33846L689.915372 616.296464zM706.875174 623.837164l28.799153 0c-1.04757-2.474433-2.20351-5.156575-3.449757-8.019332l6.809207-2.429279c1.806156 4.009666 3.260111 7.486516 4.379928 10.43958l30.099586 0 0 6.538284-66.647147 0L706.866143 623.837164zM709.0245 643.135938l16.499233 0c-1.553294-2.646018-3.549096-5.716483-5.960314-9.229456l5.490713-3.350419c2.745357 3.47685 5.156575 6.84533 7.278808 10.069318l-4.000635 2.510556 17.004956 0c2.709234-4.163189 5.174636-8.263163 7.414269-12.299921l6.899515 3.458788c-2.176418 2.907911-4.416051 5.860975-6.709869 8.841132l16.688879 0 0 51.556716c0 6.700838-3.052403 10.069318-9.139148 10.069318-1.553294 0-5.463621-0.045154-11.749043-0.108369-0.189646-2.059018-0.677308-4.533451-1.490078-7.459423 4.786313 0.505724 8.642455 0.749555 11.559397 0.749555 2.736326 0 4.099974-1.517171 4.099974-4.569574l0-43.898615-47.176788 0 0 55.927613-6.709869 0L709.0245 643.135938zM724.783208 671.664168l11.36975 0 0-7.829685-16.128971 0 0-5.960314 16.128971 0 0-6.619561 6.339607 0 0 6.619561 16.128971 0 0 5.960314-16.128971 0 0 7.829685 11.189135 0 0 20.689514-22.757562 0 0 3.729712-6.14996 0L724.774178 671.664168zM747.522709 686.573984l0-9.139148-16.598571 0 0 9.139148L747.522709 686.573984z" p-id="10038" fill="#efb336"></path><path d="M810.367898 640.336397c4.28962 2.925972 9.717118 7.116254 16.318617 12.588906-2.302849 2.54668-4.099974 4.542482-5.409436 5.960314-6.646653-6.023529-11.848382-10.430549-15.569063-13.230091L810.367898 640.336397zM816.797813 667.28424c2.618926 1.246247 5.129482 2.266725 7.558762 3.079496-2.492495 10.32218-5.255913 21.998977-8.299286 35.048452l-8.208978-2.429279C810.96393 693.283852 813.944087 681.381286 816.797813 667.28424zM814.007302 616.296464c3.973543 3.097557 8.913379 7.332992 14.828539 12.661152l-5.409436 5.788729c-4.416051-4.723097-9.139148-9.175271-14.160261-13.33846L814.007302 616.296464zM830.967105 623.837164l28.817215 0c-1.056601-2.474433-2.212541-5.156575-3.467819-8.019332l6.809207-2.429279c1.797125 4.009666 3.260111 7.486516 4.388958 10.43958l30.099586 0 0 6.538284-66.656178 0L830.958074 623.837164zM833.11643 643.135938l16.490202 0c-1.553294-2.646018-3.540065-5.716483-5.960314-9.229456l5.490713-3.350419c2.745357 3.47685 5.165605 6.84533 7.287838 10.069318l-4.000635 2.510556 17.013987 0c2.700203-4.163189 5.174636-8.263163 7.405239-12.299921l6.899515 3.458788c-2.176418 2.907911-4.416051 5.860975-6.709869 8.841132l16.688879 0 0 51.556716c0 6.700838-3.052403 10.069318-9.139148 10.069318-1.562325 0-5.472652-0.045154-11.749043-0.108369-0.189646-2.059018-0.686339-4.533451-1.499109-7.459423 4.795344 0.505724 8.642455 0.749555 11.559397 0.749555 2.736326 0 4.099974-1.517171 4.099974-4.569574l0-43.898615-47.167757 0 0 55.927613-6.709869 0L833.11643 643.135938zM848.866108 671.664168l11.36975 0 0-7.829685-16.110909 0 0-5.960314 16.110909 0 0-6.619561 6.348637 0 0 6.619561 16.11994 0 0 5.960314-16.11994 0 0 7.829685 11.180104 0 0 20.689514L855.03413 692.353682l0 3.729712-6.168022 0L848.866108 671.664168zM871.61464 686.573984l0-9.139148L855.03413 677.434836l0 9.139148L871.61464 686.573984z" p-id="10039" fill="#efb336"></path><path d="M929.980563 653.295564l92.664821 0 0 8.208978-92.664821 0L929.980563 653.295564z" p-id="10040" fill="#efb336"></path><path d="M1055.002663 621.976823l90.605803 0 0 7.64907-45.298386 0 0 20.319252 4.298651-5.969345c14.223476 8.398624 26.153135 15.948355 35.788976 22.658224l-5.490713 7.549731c-9.62681-7.387177-21.159115-15.198801-34.587883-23.398748l0 54.726519-8.479901 0L1091.83921 629.625893l-36.827516 0L1055.011694 621.976823z" p-id="10041" fill="#efb336"></path><path d="M1327.714119 698.13338c-2.357033 3.178834-4.163189 5.761637-5.409436 7.739377-20.418591-4.009666-34.009913-12.092213-40.782997-24.23861-6.068683 12.832737-20.030267 21.159115-41.902813 24.979134-1.255278-2.113202-2.78148-4.470235-4.578605-7.089161 20.888191-2.871788 34.018943-9.410071 39.383226-19.569698l-37.333239 0 0-6.339607 39.89798 0c0.614093-2.167387 1.110786-4.659882 1.499109-7.450392l7.631008 0c-0.487662 2.736326-1.04757 5.210759-1.679725 7.450392l41.577705 0 0 6.339607-38.299533 0C1294.986577 690.421095 1308.316007 696.489779 1327.714119 698.13338zM1235.789823 657.77483l41.86669 0 0-8.768886-34.20859 0 0-6.339607 34.20859 0 0-8.570209-39.807673 0 0-6.339607 29.413246 0c-3.196896-2.763418-7.351054-6.095776-12.444413-9.96998l4.298651-4.659882c5.409436 3.657465 9.906764 6.872423 13.501014 9.599718l-4.930805 5.039175 24.789488 0-3.440727-3.919358c4.912744-3.413634 9.346856-6.863392 13.329429-10.349272l5.508775 5.21979c-3.982573 2.980157-8.299286 5.996437-12.923044 9.03981l30.334386 0 0 6.339607-39.997319 0 0 8.570209 34.958144 0 0 6.339607-34.958144 0 0 8.768886 41.677044 0 0 6.339607-91.183773 0L1235.780792 657.77483z" p-id="10042" fill="#efb336"></path><path d="M1398.289655 688.813617l-5.490713 5.870006c-3.576188-3.305265-7.080131-6.484099-10.484734-9.563595-4.668913 7.053038-10.827904 13.57326-18.504066 19.524544-1.309463-1.923556-2.745357-3.94645-4.28962-6.050622 7.387177-5.382344 13.239122-11.423935 17.564865-18.142834-4.840497-4.253497-9.527472-8.245101-14.042861-11.965782 2.248664-7.901931 4.307681-17.095264 6.158991-27.607091l-9.870641 0 0-6.989823 11.053673 0c0.975324-6.14996 1.932587-12.697275 2.826634-19.669036l7.549731 1.029509c-1.110786 6.84533-2.167387 13.040444-3.160773 18.630497l17.610019 0 0 6.059653c-1.39074 16.950772-4.452174 29.882847-9.139148 38.832349C1390.180016 682.094717 1394.261928 685.418044 1398.289655 688.813617zM1388.039721 640.896305l-11.694858 0c-2.212541 11.866443-4.127066 20.418591-5.734544 25.647412 3.287203 2.573772 6.583438 5.156575 9.879672 7.7755C1384.680272 665.649669 1387.190828 654.514719 1388.039721 640.896305zM1395.110821 656.185413l25.656442 0 0-14.539554c6.14996-5.21979 11.767105-9.951918 16.851433-14.169292l-39.139395 0 0-6.800176 49.488667 0 0 7.369115c-6.709869 5.707452-13.329429 11.333627-19.849652 16.860464l0 11.279443 23.669671 0 0 6.809207-23.669671 0 0 29.828662c0 7.585854-4.009666 11.36975-12.019966 11.36975-2.609895 0-6.691807-0.054185-12.218644-0.180616-0.316077-2.375095-0.713432-4.876621-1.210124-7.558762 5.590052 0.505724 9.726149 0.785678 12.390228 0.839862 3.792927 0 5.698421-1.833248 5.698421-5.490713l0-28.799153-25.656442 0L1395.10179 656.185413z" p-id="10043" fill="#efb336"></path><path d="M1557.809331 661.215557l0-3.440727-24.527595 0 0 36.538531 27.309075 0 0-26.55952 7.829685 0 0 37.017162-7.829685 0 0-3.36848-70.087874 0 0-33.648682 7.919993 0 0 26.55952 26.758197 0 0-36.538531-32.167634 0 0-33.468066 7.919993 0 0 26.387935 24.247641 0 0-34.967175 8.091578 0 0 34.967175 24.527595 0 0-26.387935 7.919993 0 0 36.908793L1557.809331 661.215557z" p-id="10044" fill="#efb336"></path><path d="M1607.31606 670.074751c9.635841-7.901931 18.404727-18.991728 26.297628-33.28745l6.529253 4.009666c-3.196896 5.535867-6.592468 10.710504-10.168657 15.523909l0 49.362237-7.730347 0L1622.243937 665.929623c-3.729712 4.226404-7.612946 8.11867-11.649705 11.694858C1609.582785 675.014587 1608.499092 672.50403 1607.31606 670.074751zM1607.78566 640.535074c9.888703-7.6581 17.844819-16.526325 23.868348-26.66789l6.709869 4.109004c-7.206561 11.062704-16.165094 20.969468-26.839474 29.738354C1610.404586 645.339448 1609.158338 642.946292 1607.78566 640.535074zM1641.073111 649.19559l58.998077 0 0 6.989823-18.070588 0 0 36.448223c0 7.712285-3.892266 11.550366-11.658735 11.550366-5.21979 0-10.529888-0.027092-15.948355-0.081277-0.370262-2.492495-0.839862-5.283006-1.39074-8.398624 4.849528 0.496693 9.717118 0.740524 14.638892 0.740524 4.280589 0 6.438945-2.113202 6.438945-6.339607l0-33.928636-33.007496 0L1641.073111 649.19559zM1646.473516 621.055684l48.368851 0 0 6.989823-48.368851 0L1646.473516 621.055684z" p-id="10045" fill="#efb336"></path></svg>